<svg width="139" height="39" viewBox="0 0 139 39" fill="none" xmlns="http://www.w3.org/2000/svg">
<path d="M34.9109 20.3702L34.9431 20.0095H38.4653V18.0361H34.9431L34.9109 17.6754C34.253 10.1215 28.2348 4.16599 20.5968 3.51528L20.2321 3.48345V0H18.2368V3.48345L17.872 3.51528C10.234 4.16599 4.21234 10.1215 3.55438 17.6719L3.5222 18.0326H0V20.006H3.5222L3.55438 20.3667C4.21234 27.9206 10.234 33.8726 17.872 34.5268L18.2368 34.5587V38.0421H20.2321V34.5587L20.5968 34.5268C28.2348 33.8761 34.253 27.9242 34.9109 20.3702ZM25.8676 7.09775L26.4791 7.47262C28.3385 8.61844 29.9155 10.2063 31.0383 12.063L31.3994 12.6607H29.7188C27.5947 12.6607 25.8676 10.5671 25.8676 7.99248V7.09775ZM20.2321 5.45682L20.6719 5.50279C21.6589 5.60535 22.6422 5.81754 23.597 6.13582L23.8687 6.22777V7.99956C23.8687 11.6634 26.4934 14.6411 29.7188 14.6411H32.2469L32.3363 14.9169C32.6152 15.7869 32.8047 16.6887 32.9013 17.5976L32.9478 18.0326H28.4494C23.9188 18.0326 20.2321 13.6544 20.2321 8.2754V5.45682ZM7.42702 12.0665C8.54983 10.2063 10.1268 8.61844 11.9862 7.47615L12.5977 7.10129V7.99956C12.5977 10.5741 10.8705 12.6677 8.7465 12.6677H7.06586L7.42702 12.0665ZM5.564 17.5976C5.66055 16.6887 5.85007 15.7869 6.12899 14.9169L6.21838 14.6411H8.7465C11.9719 14.6411 14.5966 11.6598 14.5966 7.99956V6.22424L14.8683 6.13229C15.8231 5.814 16.8064 5.60181 17.7934 5.49925L18.2332 5.45328V8.27187C18.2332 13.6544 14.5465 18.0291 10.0159 18.0291H5.51752L5.564 17.5976ZM12.5977 30.9443L11.9862 30.5695C10.1268 29.4237 8.54983 27.8358 7.42702 25.9791L7.06586 25.3814H8.7465C10.8705 25.3814 12.5977 27.475 12.5977 30.0496V30.9443ZM18.2332 32.5853L17.7934 32.5393C16.8064 32.4368 15.8231 32.2246 14.8683 31.9063L14.5966 31.8143V30.0425C14.5966 26.3787 11.9719 23.3975 8.7465 23.3975H6.21838L6.12899 23.1216C5.85007 22.2516 5.65698 21.3463 5.564 20.441L5.51752 20.006H10.0159C14.3927 20.006 18.2332 24.5645 18.2332 29.7632V32.5853ZM19.567 23.9775L19.213 24.6918L18.8518 23.981C17.8613 22.0288 16.4202 20.441 14.686 19.3835L14.1281 19.044L14.6895 18.7081C16.4417 17.6683 17.8899 16.0769 18.8733 14.1142L19.2309 13.3998L19.5884 14.1142C20.5646 16.0628 21.9986 17.6471 23.7364 18.6868L24.2978 19.0228L23.7364 19.3588C21.9878 20.4091 20.5468 22.0041 19.567 23.9775ZM23.8687 31.8179L23.597 31.9098C22.6422 32.2281 21.6589 32.4403 20.6719 32.5428L20.2321 32.5888V29.7702C20.2321 24.3877 23.9188 20.013 28.4494 20.013H32.9478L32.9013 20.448C32.8047 21.3569 32.6152 22.2587 32.3363 23.1287L32.2469 23.4045H29.7188C26.4934 23.4045 23.8687 26.3858 23.8687 30.0496V31.8179ZM26.4791 30.5659L25.8676 30.9408V30.0425C25.8676 27.468 27.5947 25.3744 29.7188 25.3744H31.3994L31.0383 25.972C29.9155 27.8322 28.3385 29.4201 26.4791 30.5659Z" fill="#F8F7F6"/>
<path d="M61.7515 19.0017C61.7515 19.4261 61.3224 19.5251 60.8933 19.801C60.2139 20.2501 60.2139 20.8478 60.2139 22.418V24.6849C60.2139 25.2083 60.0887 25.4311 59.7097 25.7317C58.501 26.63 56.5844 27.4009 54.2923 27.4009C48.7247 27.3762 45.0952 23.5391 45.0952 18.206C45.0952 13.1983 49.0501 9.03589 54.6963 9.03589C56.3841 9.03589 58.0469 9.3082 59.1053 9.93416C59.9635 10.4576 60.1388 11.2533 60.1388 12.4274V12.9755C60.0887 13.8243 59.8634 14.3194 59.2806 14.3194C58.7513 14.3194 58.5511 13.9976 58.2722 13.5485C57.818 12.7775 57.439 12.1515 56.6344 11.5539C55.93 11.0305 55.1469 10.7582 54.1921 10.7582C51.0418 10.7582 48.7998 13.5485 48.7998 17.5129C48.7998 21.9724 51.0168 25.6115 54.6212 25.6115C55.2756 25.6115 55.93 25.4877 56.259 25.3391C56.7381 25.1411 56.8383 24.89 56.8383 24.4904V22.4215C56.8383 20.7771 56.7381 20.1794 55.7047 19.8045C55.2005 19.6312 54.6963 19.5287 54.6963 19.0336C54.7214 18.733 54.9717 18.5349 55.5009 18.5349L60.9684 18.5102C61.4726 18.5031 61.7515 18.7047 61.7515 19.0017Z" fill="#F8F7F6"/>
<path d="M78.0252 25.7811C78.0252 26.1065 77.8249 26.3045 77.2707 26.4283C76.1872 26.6759 75.1037 27.0012 74.3242 27.3018C74.1991 27.3513 74.0203 27.4009 73.82 27.4009C73.466 27.4009 73.1656 27.2276 73.1656 26.6547V25.233C73.1656 25.1835 73.1406 25.134 73.0905 25.134C73.0655 25.134 73.0405 25.134 72.9904 25.2082C72.0071 26.6547 70.4945 27.4009 68.8567 27.4009C67.548 27.4009 66.2857 26.8775 65.5062 25.8059C64.8768 24.9324 64.6766 23.8113 64.6766 22.3932V18.5525C64.6766 17.6543 64.6766 17.1309 64.4763 16.7348C64.3011 16.3847 64.0222 16.2114 63.5931 16.0628C63.3178 15.9638 62.8887 15.8153 62.8887 15.4652C62.8887 15.1434 63.0889 14.9665 63.6682 14.8428C64.7267 14.5917 65.685 14.3193 66.5396 13.994C66.7399 13.9197 66.9687 13.8455 67.169 13.8455C67.4979 13.8455 67.7733 14.0187 67.7733 14.5917V22.3684C67.7733 24.1367 68.6565 25.0349 70.1154 25.0349C70.7448 25.0349 71.4492 24.8369 71.9785 24.3135C72.8367 23.4647 73.1621 22.0218 73.1621 18.8567C73.1621 17.7356 73.137 17.1379 72.9368 16.7383C72.7866 16.413 72.4826 16.2149 72.0535 16.0664C71.7782 15.9674 71.3741 15.8188 71.3741 15.4687C71.3741 15.1469 71.5494 14.9701 72.1286 14.8463C73.2121 14.5952 74.2455 14.2981 75.0251 13.9975C75.2253 13.9233 75.4291 13.849 75.6294 13.849C75.9584 13.849 76.2337 14.0223 76.2337 14.5952V22.6938C76.2337 23.592 76.2838 24.1402 76.459 24.5115C76.6092 24.8369 76.8881 25.0349 77.3422 25.2082C77.6462 25.332 78.0252 25.431 78.0252 25.7811Z" fill="#F8F7F6"/>
<path d="M86.3991 26.5768C86.3991 26.9517 86.02 27.125 85.5659 27.125H80.7278C80.2737 27.125 79.8946 26.9517 79.8946 26.5768C79.8946 26.2762 80.1199 26.1029 80.4239 25.9296C80.8279 25.7068 81.1533 25.4062 81.3071 25.0561C81.4823 24.6812 81.611 24.1331 81.611 22.4143V18.5772C81.611 17.679 81.611 17.1308 81.4108 16.7595C81.2356 16.4341 80.9817 16.2361 80.5276 16.0628C80.2236 15.939 79.8481 15.7905 79.8481 15.4651C79.8481 15.1645 80.0234 14.9665 80.6026 14.8427C81.4859 14.6694 82.4406 14.3936 83.0986 14.146C83.5777 13.9727 83.803 13.8454 84.107 13.8454C84.461 13.8454 84.7113 14.0187 84.7113 14.5916V22.4179C84.7113 24.1366 84.8364 24.6848 85.0117 25.0349C85.1869 25.385 85.4908 25.6821 85.8699 25.9332C86.1702 26.1312 86.3991 26.2797 86.3991 26.5768ZM83.12 12.4732C82.4406 12.4732 81.0282 11.0516 81.0282 10.4044C81.0282 9.73246 82.4406 8.31079 83.12 8.31079C83.7994 8.31079 85.2369 9.73246 85.2369 10.4044C85.2369 11.0516 83.803 12.4732 83.12 12.4732Z" fill="#F8F7F6"/>
<path d="M102.294 25.7825C102.294 26.1079 102.119 26.2564 101.515 26.4049C100.481 26.6525 99.4226 26.9531 98.593 27.2785C98.4429 27.328 98.2641 27.4022 98.0388 27.4022C97.7348 27.4022 97.4595 27.2289 97.4595 26.656V25.4854C97.4595 25.3122 97.3844 25.2626 97.2843 25.2626C97.2342 25.2626 97.1591 25.2874 97.084 25.3864C96.1007 26.5818 94.6382 27.4058 93.0255 27.4058C92.296 27.4058 91.5379 27.2325 90.7834 26.8576C88.7166 25.8108 87.8369 23.5934 87.8369 21.3265C87.8369 17.3409 90.4079 13.8504 94.1375 13.8504C95.221 13.8504 96.3045 14.151 97.2628 14.6461C97.3129 14.6708 97.3379 14.6708 97.3629 14.6708C97.413 14.6708 97.4631 14.6213 97.4631 14.5471V13.2527C97.4631 12.3544 97.438 11.8063 97.2378 11.4067C97.0876 11.1096 96.8588 10.908 96.3796 10.7347C96.0256 10.6109 95.6752 10.4624 95.6752 10.137C95.6752 9.81169 95.8504 9.66316 96.4297 9.51463C97.4881 9.26353 98.3463 9.01598 99.0758 8.74367C99.5049 8.59514 99.6551 8.51733 99.934 8.51733C100.263 8.51733 100.513 8.69062 100.513 9.26354C100.513 9.48987 100.513 22.6704 100.513 22.6704C100.513 23.5687 100.513 24.1416 100.714 24.5129C100.889 24.8383 101.168 25.0116 101.597 25.1848C101.915 25.3086 102.294 25.4819 102.294 25.7825ZM97.4559 20.4247C97.4559 17.2348 96.1221 15.4418 94.2305 15.4418C92.1887 15.4418 91.0301 17.3374 91.0301 20.2762C91.0301 23.0665 92.3139 25.1601 94.3056 25.1601C95.9934 25.1601 97.4559 23.7632 97.4559 20.4247Z" fill="#F8F7F6"/>
<path d="M115.392 24.3842C115.392 24.9076 114.638 25.7316 113.78 26.2798C112.696 26.9765 111.284 27.3761 109.875 27.3761C107.508 27.3761 105.137 26.2798 104.103 23.6133C103.799 22.7928 103.624 21.8945 103.624 20.9963C103.624 18.503 104.833 15.9391 107.279 14.5917C108.187 14.093 109.22 13.8455 110.25 13.8455C111.559 13.8455 112.821 14.2451 113.805 15.0408C115.138 16.1371 115.643 17.633 115.643 18.7046C115.643 19.8257 115.314 20.4233 113.576 20.4233C113.576 20.4233 107.275 20.4233 107.15 20.4233C106.95 20.4233 106.85 20.5224 106.85 20.6957C106.85 21.0953 106.9 22.3896 107.733 23.5355C108.591 24.706 109.8 25.1304 111.008 25.1304C113.351 25.1304 114.184 23.8608 114.863 23.8608C115.217 23.8608 115.392 24.1367 115.392 24.3842ZM107.129 18.8779C107.179 18.8779 110.629 18.8779 110.629 18.8779C111.888 18.8779 112.492 18.5773 112.492 17.6578C112.492 16.611 111.609 15.3909 109.971 15.3909C107.629 15.3909 106.871 18.0574 106.871 18.6303C106.875 18.8284 106.928 18.8779 107.129 18.8779Z" fill="#F8F7F6"/>
<path d="M123.503 26.5782C123.503 26.9531 123.124 27.1264 122.67 27.1264H117.832C117.378 27.1264 117.002 26.9531 117.002 26.5782C117.002 26.2776 117.227 26.1043 117.531 25.931C117.935 25.7082 118.261 25.4076 118.415 25.0575C118.59 24.6827 118.718 24.1345 118.718 22.4158V13.2492C118.718 12.3509 118.718 11.8027 118.518 11.4314C118.343 11.1096 118.089 10.908 117.635 10.7347C117.331 10.6109 116.956 10.4624 116.956 10.137C116.956 9.83645 117.131 9.6384 117.71 9.51463C118.593 9.34134 119.548 9.06549 120.206 8.81794C120.685 8.64465 120.91 8.51733 121.214 8.51733C121.568 8.51733 121.819 8.69062 121.819 9.26354V22.4193C121.819 24.138 121.944 24.6862 122.123 25.0363C122.298 25.3864 122.602 25.6835 122.981 25.9346C123.278 26.1326 123.503 26.2812 123.503 26.5782Z" fill="#F8F7F6"/>
<path d="M139.001 14.6658C139.001 14.9381 138.8 15.0902 138.546 15.2635C138.142 15.5358 137.713 15.7374 137.188 16.5331C136.758 17.1803 136.354 18.0538 136.004 18.8495C135.224 20.6425 133.662 24.5079 132.804 26.5237C131.87 28.7163 130.941 30.4598 129.074 31.4324C128.42 31.7825 127.715 31.931 127.082 31.931C126.353 31.931 125.695 31.7047 125.269 31.2343C124.89 30.8099 124.765 30.237 124.765 29.7631C124.765 29.0664 125.015 28.2672 125.799 28.2672C126.128 28.2672 126.328 28.4405 126.528 28.6173C126.982 28.9922 127.411 29.5156 128.166 29.5156C128.545 29.5156 128.945 29.367 129.299 29.0912C129.703 28.7694 130.054 28.2424 130.258 27.8711C130.308 27.7721 130.358 27.6731 130.358 27.5988C130.358 27.5245 130.333 27.4503 130.308 27.3725L126.328 17.7284C125.899 16.6569 125.648 16.084 125.219 15.6843C124.994 15.458 124.74 15.359 124.465 15.2104C124.214 15.0867 124.036 14.9381 124.036 14.687C124.036 14.3617 124.261 14.1141 124.919 14.1141H129.657C130.111 14.1141 130.436 14.3122 130.436 14.6623C130.436 14.9346 130.236 15.0867 130.057 15.1857C129.678 15.412 129.199 15.5853 129.199 16.2077C129.199 16.4588 129.274 16.8054 129.474 17.3041C129.954 18.4746 131.892 22.9624 132.096 23.4328C132.121 23.5071 132.146 23.5071 132.171 23.5071C132.221 23.5071 132.246 23.4823 132.271 23.4328L133.984 19.2951C134.563 17.9229 134.738 17.1272 134.738 16.5791C134.738 15.8576 134.334 15.4828 133.805 15.1822C133.605 15.0584 133.451 14.9346 133.451 14.6588C133.451 14.2839 133.83 14.1106 134.334 14.1106H138.114C138.621 14.1177 139.001 14.2662 139.001 14.6658Z" fill="#F8F7F6"/>
</svg>
